<!-- <svg xmlns="http://www.w3.org/2000/svg" width="24" height="24" viewBox="0 0 24 24" fill="none" stroke="currentColor" stroke-width="2" stroke-linecap="round" stroke-linejoin="round" class="feather feather-github"><path d="M9 19c-5 1.5-5-2.5-7-3m14 6v-3.87a3.37 3.37 0 0 0-.94-2.61c3.14-.35 6.44-1.54 6.44-7A5.44 5.44 0 0 0 20 4.77 5.07 5.07 0 0 0 19.91 1S18.73.65 16 2.48a13.38 13.38 0 0 0-7 0C6.27.65 5.09 1 5.09 1A5.07 5.07 0 0 0 5 4.77a5.44 5.44 0 0 0-1.5 3.78c0 5.42 3.3 6.61 6.44 7A3.37 3.37 0 0 0 9 18.13V22"></path></svg> -->

<svg xmlns="http://www.w3.org/2000/svg" height="1em" viewBox="0 0 480 512"><!--! Font Awesome Free 6.4.2 by @fontawesome - https://fontawesome.com License - https://fontawesome.com/license (Commercial License) Copyright 2023 Fonticons, Inc. --><style>svg{fill:#c5c5c5}</style><path d="M186.1 328.7c0 20.9-10.9 55.1-36.7 55.1s-36.7-34.2-36.7-55.1 10.9-55.1 36.7-55.1 36.7 34.2 36.7 55.1zM480 278.2c0 31.9-3.2 65.7-17.5 95-37.9 76.6-142.1 74.8-216.7 74.8-75.8 0-186.2 2.7-225.6-74.8-14.6-29-20.2-63.1-20.2-95 0-41.9 13.9-81.5 41.5-113.6-5.2-15.8-7.7-32.4-7.7-48.8 0-21.5 4.9-32.3 14.6-51.8 45.3 0 74.3 9 108.8 36 29-6.9 58.8-10 88.7-10 27 0 54.2 2.9 80.4 9.2 34-26.7 63-35.2 107.8-35.2 9.8 19.5 14.6 30.3 14.6 51.8 0 16.4-2.6 32.7-7.7 48.2 27.5 32.4 39 72.3 39 114.2zm-64.3 50.5c0-43.9-26.7-82.6-73.5-82.6-18.9 0-37 3.4-56 6-14.9 2.3-29.8 3.2-45.1 3.2-15.2 0-30.1-.9-45.1-3.2-18.7-2.6-37-6-56-6-46.8 0-73.5 38.7-73.5 82.6 0 87.8 80.4 101.3 150.4 101.3h48.2c70.3 0 150.6-13.4 150.6-101.3zm-82.6-55.1c-25.8 0-36.7 34.2-36.7 55.1s10.9 55.1 36.7 55.1 36.7-34.2 36.7-55.1-10.9-55.1-36.7-55.1z"/></svg>